<?xml version="1.0" standalone="no"?><!DOCTYPE svg PUBLIC "-//W3C//DTD SVG 1.1//EN" "http://www.w3.org/Graphics/SVG/1.1/DTD/svg11.dtd"><svg t="1611266804666" class="icon" viewBox="0 0 1024 1024" version="1.1" xmlns="http://www.w3.org/2000/svg" p-id="13048" xmlns:xlink="http://www.w3.org/1999/xlink" width="200" height="200"><defs><style type="text/css"></style></defs><path d="M676.022857 517.266286c1.426286 26.989714 18.486857 245.796571 18.486857 258.578285 0 2.834286-1.426286 5.668571-2.852571 7.113143-56.813714 38.345143-174.738286 115.072-174.738286 115.072V611.035429c0-2.834286 1.408-4.260571 1.408-5.686858l4.260572-4.260571c48.310857-28.416 150.601143-82.395429 153.453714-83.821714zM501.302857 898.011429s-120.758857-79.561143-171.922286-113.664c-4.260571-2.834286-5.668571-5.668571-5.668571-11.373715l12.781714-179.017143c1.408-22.729143 2.834286-44.032 4.260572-66.761142 0-2.852571 1.408-5.686857 1.408-9.947429 2.852571 1.408 4.278857 1.408 5.668571 2.834286 49.737143 26.989714 98.048 52.571429 147.785143 79.561143 4.260571 1.426286 5.668571 4.260571 5.668571 8.521142v289.846858z m-174.756571-380.763429c-1.426286 19.894857-2.834286 36.937143-4.260572 53.979429-2.834286 34.102857-5.686857 69.613714-7.113143 103.716571-2.834286 32.676571-4.260571 66.779429-7.094857 99.474286 0 2.834286-2.852571 5.668571-4.260571 7.094857-59.684571 32.676571-120.777143 65.353143-180.443429 98.029714a12.141714 12.141714 0 0 1-9.947428 0c-4.260571-2.834286-4.260571-7.094857-2.834286-12.781714 4.260571-21.321143 9.947429-44.050286 14.208-65.353143 11.355429-55.405714 22.729143-109.403429 34.084571-164.809143 1.426286-5.686857 2.852571-9.947429 8.539429-12.8a5634.998857 5634.998857 0 0 0 150.601143-103.716571c2.834286 0 5.668571-1.408 8.521143-2.834286z m365.129143 0c2.852571 1.426286 5.686857 2.834286 7.113142 4.260571 51.163429 35.510857 102.290286 69.613714 153.453715 105.142858 4.260571 2.834286 5.668571 5.668571 7.113143 11.355428 15.616 75.300571 32.658286 152.027429 48.292571 227.328 0 1.426286 1.426286 2.834286 0 2.834286-1.426286 4.260571-1.426286 8.521143-4.260571 11.373714a15.689143 15.689143 0 0 1-11.373715 0l-63.926857-34.102857c-38.363429-19.894857-75.300571-41.197714-113.664-61.074286-4.260571-2.852571-5.668571-4.278857-5.668571-9.965714-4.278857-69.613714-9.965714-139.227429-14.226286-208.841143 0-17.060571-1.426286-31.268571-2.852571-48.310857z m-174.738286 68.205714v-160.548571c0-5.686857 1.408-8.539429 5.668571-11.373714 45.476571-25.581714 90.934857-51.145143 136.411429-78.153143 1.408-1.408 2.834286-1.408 5.668571-2.834286 1.426286 18.468571 2.852571 35.510857 4.260572 52.571429l8.521143 106.550857c0 5.686857 0 8.539429-5.668572 11.373714-48.310857 25.563429-98.048 52.571429-146.340571 78.134857-2.852571 2.852571-5.686857 2.852571-8.521143 4.260572zM354.925714 332.544c2.834286 1.426286 4.260571 2.834286 5.668572 2.834286 45.476571 25.581714 90.934857 52.571429 136.411428 78.153143 4.260571 2.834286 5.668571 4.260571 5.668572 8.521142v163.401143c-2.834286-1.426286-5.668571-2.852571-7.094857-2.852571-48.310857-25.563429-96.621714-52.571429-146.340572-78.134857-4.260571-2.834286-5.668571-4.260571-5.668571-9.947429 2.834286-39.789714 5.668571-79.561143 8.502857-120.777143 1.426286-9.929143 1.426286-19.876571 1.426286-29.824 0-4.278857 1.426286-7.113143 1.426285-11.373714z m325.357715 0c2.834286 1.426286 4.260571 2.834286 7.094857 4.260571 39.789714 28.416 79.579429 58.258286 119.350857 86.674286 8.521143 5.668571 14.208 14.208 17.060571 24.137143 11.355429 53.997714 22.729143 106.569143 34.102857 160.548571v4.278858c-2.852571-1.426286-4.260571-2.852571-7.113142-4.260572-49.737143-34.102857-100.864-69.632-150.601143-103.716571-5.668571-4.278857-7.113143-7.113143-8.521143-14.226286-2.834286-51.145143-7.113143-102.290286-11.373714-153.435429v-4.260571zM161.718857 612.461714c0-2.852571 0-4.260571 1.408-7.113143 11.373714-52.571429 22.747429-103.716571 32.676572-156.288 2.852571-9.947429 7.131429-18.468571 15.634285-25.563428 41.197714-29.842286 80.987429-59.684571 122.185143-88.082286 1.426286-1.426286 2.834286-1.426286 5.668572-2.852571-1.408 12.8-1.408 24.155429-2.816 34.102857-2.852571 41.197714-5.686857 83.821714-8.539429 125.037714 0 4.260571-1.408 8.521143-5.668571 11.355429-51.163429 35.529143-102.308571 71.04-154.88 105.142857-1.408 2.834286-2.834286 2.834286-5.668572 4.260571z" fill="#409EFF" p-id="13049"></path><path d="M384.457143 348.763429c1.828571 3.401143 3.657143 6.674286 5.76 9.929142 75.117714 118.034286 117.997714 177.060571 128.694857 177.060572 10.678857 0 55.862857-64.164571 135.570286-192.475429h-0.64A150.564571 150.564571 0 0 0 515.821714 128c-81.956571 1.042286-148.608 68.608-148.608 150.692571 0 23.131429 5.229714 45.092571 14.628572 64.694858h-0.512v-0.128l3.126857 5.485714z m133.302857-138.422858c38.948571 0 70.582857 31.634286 70.582857 70.582858s-31.634286 70.582857-70.582857 70.582857-70.564571-31.634286-70.564571-70.582857 31.506286-70.582857 70.582857-70.582858z" fill="#FF5050" p-id="13050"></path></svg>