{
  "accessors": [
    {
      "name": "default_1_0_positions",
      "componentType": 5126,
      "count": 394,
      "min": [
        -108.82140350341797,
        554.4899291992188,
        374.7738037109375
      ],
      "max": [
        -93.48989868164062,
        569.284912109375,
        383.9507141113281
      ],
      "type": "VEC3",
      "bufferView": 0,
      "byteOffset": 0
    },
    {
      "name": "default_1_0_texcoords",
      "componentType": 5126,
      "count": 394,
      "min": [
        0.0020000000949949026,
        0.003000000026077032
      ],
      "max": [
        0.9818999767303467,
        0.9901000261306763
      ],
      "type": "VEC2",
      "bufferView": 1,
      "byteOffset": 0
    },
    {
      "name": "default_1_0_indices",
      "componentType": 5123,
      "count": 411,
      "min": [
        0
      ],
      "max": [
        393
      ],
      "type": "SCALAR",
      "bufferView": 2,
      "byteOffset": 0
    },
    {
      "name": "default_1_1_positions",
      "componentType": 5126,
      "count": 532,
      "min": [
        -123.61150360107422,
        554.4899291992188,
        376.52740478515625
      ],
      "max": [
        -108.75890350341797,
        577.8272094726562,
        397.2275085449219
      ],
      "type": "VEC3",
      "bufferView": 0,
      "byteOffset": 4728
    },
    {
      "name": "default_1_1_texcoords",
      "componentType": 5126,
      "count": 532,
      "min": [
        0.0017999999690800905,
        0.001500000013038516
      ],
      "max": [
        0.9876999855041504,
        0.5138999819755554
      ],
      "type": "VEC2",
      "bufferView": 1,
      "byteOffset": 3152
    },
    {
      "name": "default_1_1_indices",
      "componentType": 5123,
      "count": 552,
      "min": [
        0
      ],
      "max": [
        531
      ],
      "type": "SCALAR",
      "bufferView": 2,
      "byteOffset": 824
    },
    {
      "name": "default_1_2_positions",
      "componentType": 5126,
      "count": 323,
      "min": [
        -138.40159606933594,
        554.4899291992188,
        380.4840087890625
      ],
      "max": [
        -123.54900360107422,
        568.75048828125,
        397.701904296875
      ],
      "type": "VEC3",
      "bufferView": 0,
      "byteOffset": 11112
    },
    {
      "name": "default_1_2_texcoords",
      "componentType": 5126,
      "count": 323,
      "min": [
        0.0035000001080334187,
        0.0038999998942017555
      ],
      "max": [
        0.9829999804496765,
        0.9879000186920166
      ],
      "type": "VEC2",
      "bufferView": 1,
      "byteOffset": 7408
    },
    {
      "name": "default_1_2_indices",
      "componentType": 5123,
      "count": 333,
      "min": [
        0
      ],
      "max": [
        322
      ],
      "type": "SCALAR",
      "bufferView": 2,
      "byteOffset": 1928
    },
    {
      "name": "default_1_3_positions",
      "componentType": 5126,
      "count": 193,
      "min": [
        -108.82140350341797,
        569.2222900390625,
        378.2650146484375
      ],
      "max": [
        -93.48989868164062,
        582.72509765625,
        394.2218017578125
      ],
      "type": "VEC3",
      "bufferView": 0,
      "byteOffset": 14988
    },
    {
      "name": "default_1_3_texcoords",
      "componentType": 5126,
      "count": 193,
      "min": [
        0.0044999998062849045,
        0.003700000001117587
      ],
      "max": [
        0.9657999873161316,
        0.8406999707221985
      ],
      "type": "VEC2",
      "bufferView": 1,
      "byteOffset": 9992
    },
    {
      "name": "default_1_3_indices",
      "componentType": 5123,
      "count": 201,
      "min": [
        0
      ],
      "max": [
        192
      ],
      "type": "SCALAR",
      "bufferView": 2,
      "byteOffset": 2596
    },
    {
      "name": "default_1_4_positions",
      "componentType": 5126,
      "count": 83,
      "min": [
        -151.460693359375,
        554.4899291992188,
        384.28271484375
      ],
      "max": [
        -138.33909606933594,
        560.6660766601562,
        401.9515075683594
      ],
      "type": "VEC3",
      "bufferView": 0,
      "byteOffset": 17304
    },
    {
      "name": "default_1_4_texcoords",
      "componentType": 5126,
      "count": 83,
      "min": [
        0.003100000089034438,
        0.0034000000450760126
      ],
      "max": [
        0.9884999990463257,
        0.48989999294281006
      ],
      "type": "VEC2",
      "bufferView": 1,
      "byteOffset": 11536
    },
    {
      "name": "default_1_4_indices",
      "componentType": 5123,
      "count": 84,
      "min": [
        0
      ],
      "max": [
        82
      ],
      "type": "SCALAR",
      "bufferView": 2,
      "byteOffset": 3000
    }
  ],
  "asset": {
    "generator": "obj2gltf",
    "version": "2.0"
  },
  "buffers": [
    {
      "name": "14",
      "byteLength": 389588,
      "uri": "data:application/octet-stream;base64,"
    }
  ],
  "bufferViews": [
    {
      "name": "bufferView_0",
      "buffer": 0,
      "byteLength": 18300,
      "byteOffset": 0,
      "byteStride": 12,
      "target": 34962
    },
    {
      "name": "bufferView_1",
      "buffer": 0,
      "byteLength": 12200,
      "byteOffset": 18300,
      "byteStride": 8,
      "target": 34962
    },
    {
      "name": "bufferView_2",
      "buffer": 0,
      "byteLength": 3168,
      "byteOffset": 30500,
      "target": 34963
    },
    {
      "buffer": 0,
      "byteOffset": 33668,
      "byteLength": 89738
    },
    {
      "buffer": 0,
      "byteOffset": 123406,
      "byteLength": 125576
    },
    {
      "buffer": 0,
      "byteOffset": 248982,
      "byteLength": 70674
    },
    {
      "buffer": 0,
      "byteOffset": 319656,
      "byteLength": 44496
    },
    {
      "buffer": 0,
      "byteOffset": 364152,
      "byteLength": 25436
    }
  ],
  "images": [
    {
      "name": "Tile_+001_+004_1",
      "mimeType": "image/jpeg",
      "bufferView": 3
    },
    {
      "name": "Tile_+001_+004_2",
      "mimeType": "image/jpeg",
      "bufferView": 4
    },
    {
      "name": "Tile_+001_+004_3",
      "mimeType": "image/jpeg",
      "bufferView": 5
    },
    {
      "name": "Tile_+001_+004_0",
      "mimeType": "image/jpeg",
      "bufferView": 6
    },
    {
      "name": "Tile_+001_+004_4",
      "mimeType": "image/jpeg",
      "bufferView": 7
    }
  ],
  "materials": [
    {
      "name": "Tile__001__004_1",
      "pbrMetallicRoughness": {
        "baseColorTexture": {
          "index": 0
        },
        "baseColorFactor": [
          1,
          1,
          1,
          1
        ],
        "metallicFactor": 0,
        "roughnessFactor": 1
      },
      "emissiveFactor": [
        0,
        0,
        0
      ],
      "alphaMode": "OPAQUE",
      "doubleSided": false
    },
    {
      "name": "Tile__001__004_2",
      "pbrMetallicRoughness": {
        "baseColorTexture": {
          "index": 1
        },
        "baseColorFactor": [
          1,
          1,
          1,
          1
        ],
        "metallicFactor": 0,
        "roughnessFactor": 1
      },
      "emissiveFactor": [
        0,
        0,
        0
      ],
      "alphaMode": "OPAQUE",
      "doubleSided": false
    },
    {
      "name": "Tile__001__004_3",
      "pbrMetallicRoughness": {
        "baseColorTexture": {
          "index": 2
        },
        "baseColorFactor": [
          1,
          1,
          1,
          1
        ],
        "metallicFactor": 0,
        "roughnessFactor": 1
      },
      "emissiveFactor": [
        0,
        0,
        0
      ],
      "alphaMode": "OPAQUE",
      "doubleSided": false
    },
    {
      "name": "Tile__001__004_0",
      "pbrMetallicRoughness": {
        "baseColorTexture": {
          "index": 3
        },
        "baseColorFactor": [
          1,
          1,
          1,
          1
        ],
        "metallicFactor": 0,
        "roughnessFactor": 1
      },
      "emissiveFactor": [
        0,
        0,
        0
      ],
      "alphaMode": "OPAQUE",
      "doubleSided": false
    },
    {
      "name": "Tile__001__004_4",
      "pbrMetallicRoughness": {
        "baseColorTexture": {
          "index": 4
        },
        "baseColorFactor": [
          1,
          1,
          1,
          1
        ],
        "metallicFactor": 0,
        "roughnessFactor": 1
      },
      "emissiveFactor": [
        0,
        0,
        0
      ],
      "alphaMode": "OPAQUE",
      "doubleSided": false
    }
  ],
  "meshes": [
    {
      "name": "default_1",
      "primitives": [
        {
          "attributes": {
            "POSITION": 0,
            "TEXCOORD_0": 1
          },
          "indices": 2,
          "material": 0,
          "mode": 4
        },
        {
          "attributes": {
            "POSITION": 3,
            "TEXCOORD_0": 4
          },
          "indices": 5,
          "material": 1,
          "mode": 4
        },
        {
          "attributes": {
            "POSITION": 6,
            "TEXCOORD_0": 7
          },
          "indices": 8,
          "material": 2,
          "mode": 4
        },
        {
          "attributes": {
            "POSITION": 9,
            "TEXCOORD_0": 10
          },
          "indices": 11,
          "material": 3,
          "mode": 4
        },
        {
          "attributes": {
            "POSITION": 12,
            "TEXCOORD_0": 13
          },
          "indices": 14,
          "material": 4,
          "mode": 4
        }
      ]
    }
  ],
  "nodes": [
    {
      "name": "default",
      "mesh": 0
    }
  ],
  "samplers": [
    {
      "wrapS": 10497,
      "wrapT": 10497
    }
  ],
  "scene": 0,
  "scenes": [
    {
      "nodes": [
        0
      ]
    }
  ],
  "textures": [
    {
      "name": "Tile_+001_+004_1",
      "sampler": 0,
      "source": 0
    },
    {
      "name": "Tile_+001_+004_2",
      "sampler": 0,
      "source": 1
    },
    {
      "name": "Tile_+001_+004_3",
      "sampler": 0,
      "source": 2
    },
    {
      "name": "Tile_+001_+004_0",
      "sampler": 0,
      "source": 3
    },
    {
      "name": "Tile_+001_+004_4",
      "sampler": 0,
      "source": 4
    }
  ]
}
