{
  "accessors": [
    {
      "name": "default_1_0_positions",
      "componentType": 5126,
      "count": 24,
      "min": [
        -449.6343078613281,
        -515.44677734375,
        204.58749389648438
      ],
      "max": [
        -443.4898986816406,
        -494.4898986816406,
        211.8583984375
      ],
      "type": "VEC3",
      "bufferView": 0,
      "byteOffset": 0
    },
    {
      "name": "default_1_0_texcoords",
      "componentType": 5126,
      "count": 24,
      "min": [
        0.004699999932199717,
        0.007300000172108412
      ],
      "max": [
        0.8669000267982483,
        0.9395999908447266
      ],
      "type": "VEC2",
      "bufferView": 1,
      "byteOffset": 0
    },
    {
      "name": "default_1_0_indices",
      "componentType": 5123,
      "count": 30,
      "min": [
        0
      ],
      "max": [
        23
      ],
      "type": "SCALAR",
      "bufferView": 2,
      "byteOffset": 0
    }
  ],
  "asset": {
    "generator": "obj2gltf",
    "version": "2.0"
  },
  "buffers": [
    {
      "name": "00",
      "byteLength": 12816,
      "uri": "data:application/octet-stream;base64,"
    }
  ],
  "bufferViews": [
    {
      "name": "bufferView_0",
      "buffer": 0,
      "byteLength": 288,
      "byteOffset": 0,
      "byteStride": 12,
      "target": 34962
    },
    {
      "name": "bufferView_1",
      "buffer": 0,
      "byteLength": 192,
      "byteOffset": 288,
      "byteStride": 8,
      "target": 34962
    },
    {
      "name": "bufferView_2",
      "buffer": 0,
      "byteLength": 60,
      "byteOffset": 480,
      "target": 34963
    },
    {
      "buffer": 0,
      "byteOffset": 540,
      "byteLength": 12275
    }
  ],
  "images": [
    {
      "name": "Tile_+000_+000_0",
      "mimeType": "image/jpeg",
      "bufferView": 3
    }
  ],
  "materials": [
    {
      "name": "Tile__000__000_0",
      "pbrMetallicRoughness": {
        "baseColorTexture": {
          "index": 0
        },
        "baseColorFactor": [
          1,
          1,
          1,
          1
        ],
        "metallicFactor": 0,
        "roughnessFactor": 1
      },
      "emissiveFactor": [
        0,
        0,
        0
      ],
      "alphaMode": "OPAQUE",
      "doubleSided": false
    }
  ],
  "meshes": [
    {
      "name": "default_1",
      "primitives": [
        {
          "attributes": {
            "POSITION": 0,
            "TEXCOORD_0": 1
          },
          "indices": 2,
          "material": 0,
          "mode": 4
        }
      ]
    }
  ],
  "nodes": [
    {
      "name": "default",
      "mesh": 0
    }
  ],
  "samplers": [
    {
      "wrapS": 10497,
      "wrapT": 10497
    }
  ],
  "scene": 0,
  "scenes": [
    {
      "nodes": [
        0
      ]
    }
  ],
  "textures": [
    {
      "name": "Tile_+000_+000_0",
      "sampler": 0,
      "source": 0
    }
  ]
}
