{
  "accessors": [
    {
      "name": "default_1_0_positions",
      "componentType": 5126,
      "count": 465,
      "min": [
        -94.51010131835938,
        -508.7958068847656,
        143.4219970703125
      ],
      "max": [
        -78.85459899902344,
        -494.4898986816406,
        148.0751953125
      ],
      "type": "VEC3",
      "bufferView": 0,
      "byteOffset": 0
    },
    {
      "name": "default_1_0_texcoords",
      "componentType": 5126,
      "count": 465,
      "min": [
        0.004399999976158142,
        0.006399999838322401
      ],
      "max": [
        0.8173999786376953,
        0.9721999764442444
      ],
      "type": "VEC2",
      "bufferView": 1,
      "byteOffset": 0
    },
    {
      "name": "default_1_0_indices",
      "componentType": 5123,
      "count": 600,
      "min": [
        0
      ],
      "max": [
        464
      ],
      "type": "SCALAR",
      "bufferView": 2,
      "byteOffset": 0
    },
    {
      "name": "default_1_1_positions",
      "componentType": 5126,
      "count": 115,
      "min": [
        -78.91709899902344,
        -502.0154113769531,
        142.9615020751953
      ],
      "max": [
        -65.19400024414062,
        -494.4898986816406,
        145.2657012939453
      ],
      "type": "VEC3",
      "bufferView": 0,
      "byteOffset": 5580
    },
    {
      "name": "default_1_1_texcoords",
      "componentType": 5126,
      "count": 115,
      "min": [
        0.0034000000450760126,
        0.008100000210106373
      ],
      "max": [
        0.511900007724762,
        0.5756000280380249
      ],
      "type": "VEC2",
      "bufferView": 1,
      "byteOffset": 3720
    },
    {
      "name": "default_1_1_indices",
      "componentType": 5123,
      "count": 135,
      "min": [
        0
      ],
      "max": [
        114
      ],
      "type": "SCALAR",
      "bufferView": 2,
      "byteOffset": 1200
    }
  ],
  "asset": {
    "generator": "obj2gltf",
    "version": "2.0"
  },
  "buffers": [
    {
      "name": "20",
      "byteLength": 31416,
      "uri": "data:application/octet-stream;base64,"
    }
  ],
  "bufferViews": [
    {
      "name": "bufferView_0",
      "buffer": 0,
      "byteLength": 6960,
      "byteOffset": 0,
      "byteStride": 12,
      "target": 34962
    },
    {
      "name": "bufferView_1",
      "buffer": 0,
      "byteLength": 4640,
      "byteOffset": 6960,
      "byteStride": 8,
      "target": 34962
    },
    {
      "name": "bufferView_2",
      "buffer": 0,
      "byteLength": 1472,
      "byteOffset": 11600,
      "target": 34963
    },
    {
      "buffer": 0,
      "byteOffset": 13072,
      "byteLength": 13055
    },
    {
      "buffer": 0,
      "byteOffset": 26127,
      "byteLength": 5287
    }
  ],
  "images": [
    {
      "name": "Tile_+002_+000_1",
      "mimeType": "image/jpeg",
      "bufferView": 3
    },
    {
      "name": "Tile_+002_+000_0",
      "mimeType": "image/jpeg",
      "bufferView": 4
    }
  ],
  "materials": [
    {
      "name": "Tile__002__000_1",
      "pbrMetallicRoughness": {
        "baseColorTexture": {
          "index": 0
        },
        "baseColorFactor": [
          1,
          1,
          1,
          1
        ],
        "metallicFactor": 0,
        "roughnessFactor": 1
      },
      "emissiveFactor": [
        0,
        0,
        0
      ],
      "alphaMode": "OPAQUE",
      "doubleSided": false
    },
    {
      "name": "Tile__002__000_0",
      "pbrMetallicRoughness": {
        "baseColorTexture": {
          "index": 1
        },
        "baseColorFactor": [
          1,
          1,
          1,
          1
        ],
        "metallicFactor": 0,
        "roughnessFactor": 1
      },
      "emissiveFactor": [
        0,
        0,
        0
      ],
      "alphaMode": "OPAQUE",
      "doubleSided": false
    }
  ],
  "meshes": [
    {
      "name": "default_1",
      "primitives": [
        {
          "attributes": {
            "POSITION": 0,
            "TEXCOORD_0": 1
          },
          "indices": 2,
          "material": 0,
          "mode": 4
        },
        {
          "attributes": {
            "POSITION": 3,
            "TEXCOORD_0": 4
          },
          "indices": 5,
          "material": 1,
          "mode": 4
        }
      ]
    }
  ],
  "nodes": [
    {
      "name": "default",
      "mesh": 0
    }
  ],
  "samplers": [
    {
      "wrapS": 10497,
      "wrapT": 10497
    }
  ],
  "scene": 0,
  "scenes": [
    {
      "nodes": [
        0
      ]
    }
  ],
  "textures": [
    {
      "name": "Tile_+002_+000_1",
      "sampler": 0,
      "source": 0
    },
    {
      "name": "Tile_+002_+000_0",
      "sampler": 0,
      "source": 1
    }
  ]
}
